<?xml version="1.0" encoding="utf-8"?>
<!-- Generator: Adobe Illustrator 24.1.1, SVG Export Plug-In . SVG Version: 6.00 Build 0)  -->
<svg version="1.1" xmlns="http://www.w3.org/2000/svg" xmlns:xlink="http://www.w3.org/1999/xlink" viewBox="0 0 900 600" fill="none">
	<g>
		<polygon points="842.7,357.5 844.7,352.8 842.4,351.7 841.4,345.2 838.7,345.1 836.4,342 832.5,340.8 827.4,343.8 
			832.2,343.2 831.8,345.2 830.2,346.1 823.7,346.1 822.6,345.5 822.6,345.4 822.6,345.4 821.8,345 821.9,345.4 818.3,345.5 
			819.4,345.2 810.9,343.7 806.4,343.8 802.4,345.8 798.2,345.8 794.1,347.5 791.7,349.9 781.1,353.6 764,357.5 756,361.8 
			750.2,366.2 748.2,373.1 749.2,372.9 748.1,374.7 747.4,380.8 748.1,384.3 748.2,394 749.1,397.9 744.6,402.1 743.6,405 
			743.7,413.8 739,420 733.3,424.6 726.3,429.1 726.9,431.1 730.9,433.3 729.6,437.5 725.2,439.5 723.1,441.5 717.8,440.4 
			713.3,438.2 716.8,438 715.1,436.6 721,435.4 724.9,432.7 723.5,431.5 714.9,436.5 713.4,435.2 710.2,435.1 699.4,437.3 
			699.3,437.2 693.3,438.7 689.4,443.2 683.2,444.1 674,444.7 670.3,445.8 670.1,447.7 667.8,447.5 665.8,449.8 663.6,450.4 
			664.1,448.8 655.9,452.5 655.9,452.6 647.7,454.8 644.8,453.8 638.4,444.8 638.3,444.6 633.1,444 627.5,440 620,440.5 
			610.5,438.7 609.3,437.9 611.7,438.3 608.3,434.8 607.2,431.4 604.2,429.9 602.3,427.1 599,424.8 596.7,418.9 593.8,409.8 
			587.6,401.8 577.9,392.5 574.8,389 573.4,384.5 569.5,377.9 567.1,372.8 568.9,368.2 569.6,363.9 564.4,359.6 561.6,356.7 
			557.6,349.7 556.8,345.1 557,344.9 555,337.6 554.7,332.2 557.2,325.4 556.2,317.5 556.7,304.2 556.6,296.7 557.5,282.7 
			561.4,264.1 564.4,258.5 567.8,249 568.1,241.8 564.4,242.1 560.8,245.2 556,241.3 551.3,239.9 541,240.2 537.3,237.2 
			531.8,235.3 530.4,236 526.6,232.7 519.5,231.9 518.6,228.8 515.5,227.4 515,221 512.6,220.2 511.1,216 509.5,214.7 510.2,210.3 
			507.9,207.6 509,204.4 507.9,200.2 505.5,198.3 503.1,197.7 502.3,196.1 500.9,195 500.9,195 498.8,191.2 496.4,188.8 
			493.8,184.3 490.7,182.9 488.6,180.6 485.7,172.6 483.2,169.4 482.6,166.9 479.9,163.6 478.7,158.3 476.4,156.6 475.1,154.1 
			470.2,151 469.6,149 464.3,148.4 464.8,145 461.7,143.2 460.5,140.4 457.8,140.8 457.1,139 454.8,140.6 443.6,140.1 438.4,137.6 
			436.3,140.9 433.9,140.8 429.7,142.1 427.3,146.5 424.6,155.5 425.4,156.6 419.9,161.2 418.9,163.1 415,162 414.9,162.2 
			413.6,162.3 409.6,158.9 406.5,158.3 403.7,155.4 397.4,153.7 392.4,148.4 390.4,148.1 386.2,144.7 385.4,141.5 382.8,137.3 
			382.8,130.3 378.8,124.3 378,120.4 375.1,116.9 369.7,113.1 366.7,111.9 362.3,107.8 361.5,105.9 357.4,102.8 351.9,96.8 
			348.1,95.2 345.4,91.7 343.8,87.7 340.1,86 300,84.7 299.6,97.2 282.7,96.4 282.7,96.3 234.7,93.9 233.3,93.7 148.9,54.5 
			149.4,52.1 152,48.4 94.5,47.2 94.4,49.7 96.1,55.2 97.8,56.3 99.3,63.7 101.2,66.2 104,68 102.9,70.9 99.9,69.2 102.7,73.3 
			101.8,76.2 105,79.7 108.7,86.3 109.2,88.2 107.9,94 110.2,94.1 111.6,96.8 114,98.5 114.4,100.6 113.4,107.6 118.1,112 
			118.7,119 117.7,122.8 120.1,124.8 119.8,128.6 124.5,133.5 125.7,133.3 129.2,136.1 131.4,139.2 136.4,141 141.7,148.8 
			143.7,149.7 144.4,153.4 147.1,154.6 151.5,162.6 154,163.1 156.5,168.3 154,173.9 155.4,175.4 154,177.4 154.1,177.8 
			151.7,180.5 151.6,180.5 151.5,180.7 151,181.2 151.2,181.2 149.2,184.1 149.1,183.3 144.2,186 141.8,185.7 130.4,182.2 
			130.7,185.8 134.1,188.9 135.2,188.6 137.7,193.1 141.1,194.7 142.9,196.7 143,201.5 147.9,205.2 149.4,204.5 151.9,206 
			154.5,210 155.8,209.4 158.9,211 160.8,215.2 162.9,217.6 165.6,217.9 166.7,216 169.8,216.2 171.8,217.9 175,213.1 174.4,216.6 
			176.8,220.6 176.6,222.1 184.5,229.1 190.2,233.4 191.5,232.8 193.6,234.9 194.6,238.6 196.9,240.3 198.7,247.7 198.3,255.4 
			199,255.5 198.6,260.6 198.2,261.3 197.5,259.1 195.1,267 192,273.5 194.9,273.9 196.5,269 196.3,271.4 197.6,274.6 200.8,274.6 
			203.5,278 204.4,281.1 207.6,281.7 207.8,280.9 208.9,283.2 212.5,287.4 222.9,294.3 234.4,306.2 240.9,310.5 244.1,316.5 
			245.5,325 249.2,329.4 251,329.4 255.8,325.1 260.6,323.2 263.4,317.9 263.6,313.2 262.3,310.2 257.4,307.6 257.1,303.5 
			254.1,300.3 254.1,295.8 250,296.1 249.6,293.2 245.6,290.4 244.1,287.8 240.7,288.5 241.7,291.5 240.5,293.8 235.8,291.1 
			233.1,287.1 231.9,281.7 232.5,278.4 234.3,274.9 231.9,269 228.4,265.2 225.9,256.8 226.1,254.7 223.7,254.2 221.5,249.3 
			220.2,247.9 226.3,239 222.2,239.9 221.1,243.2 220.2,247.9 219.3,247 218.4,242 219.6,239 217.9,233.9 218.1,231.7 216.5,229.8 
			217.2,226.4 214.2,224.6 214.6,221.4 208.3,215.1 207,215.8 207.2,217.4 203.9,213.1 205.7,209.8 202.1,208.4 199.5,206.2 
			199.9,205.3 197.9,201.9 196,196 190.7,193.2 186.9,187.3 187.3,183.9 187.4,183.9 187.4,183.8 187.4,183.4 187.2,183.3 
			186.4,180 187.1,177.9 185.2,175.4 186.1,170.8 182.1,170.1 180,168.7 178.2,161.9 176.7,158.8 174.4,159.8 172.8,155.1 
			170.7,156.6 170.8,152.8 168.4,148.1 169.3,147.1 165.9,142.2 159.7,136.6 156.1,132 151.9,130.5 151.3,127.1 149,125.3 
			146.6,119.2 147.9,112.6 146.8,106.5 147.3,103.6 147.1,97.9 144.7,95.9 145.1,94.8 143.6,91.5 145.1,85.3 145.5,81.6 147.5,78.2 
			147.1,76.2 148.5,77.6 150.4,76.6 149.7,75.8 151.5,76.1 153.4,78.5 160.8,84.4 164.3,84.8 166.5,82 170,83.3 172.5,85.2 
			173.2,89.2 174.7,91.2 182.1,93.2 186,95.9 183.3,105 184.3,109.2 186.2,113.2 188.7,116.2 188.6,120.7 190.9,123.2 190.5,130.6 
			192.1,131.1 198.5,143.7 197.2,146.1 199.5,148.7 201.6,148.4 201.7,151.4 203,153.8 203.1,156.2 201.4,152.7 201.4,150 
			197,150.4 195,154.1 195.1,157 192.4,159.7 199.9,164.8 203.1,156.2 203.1,157.2 205.9,161 208.2,162.7 207.5,163.8 211.9,169.1 
			212.9,172.7 218.4,175.2 223.3,184.5 228.1,188.1 229.5,187.5 232.4,191.6 233.4,187.6 233.9,188.6 240,191 238.4,191.6 
			239.1,195.7 237.9,197.4 238.6,202.1 241.9,205.8 238.6,205.8 243,208.1 245.6,210.9 253.3,214 255.6,220.8 257.8,223.7 
			260.5,224.8 264.2,224.7 264.2,223.4 269.9,229.8 269.8,234.2 270.5,234.3 270.4,235.9 270.3,235.9 269.7,237.3 269.7,237 
			270.3,235.2 269.6,234.9 269.1,235.9 269.1,235.8 265,242.1 264.6,248.8 268.2,251 267.7,252.6 271.2,253.1 272.1,255.1 
			277.1,252.5 275.9,254.5 271.7,255.9 280,261.1 282.9,260.5 288.5,264.2 290.4,267.9 291,265.7 291.3,267.3 291.9,267.3 
			295.6,275 298.8,277 298.3,277 298.9,279.5 298.9,279.5 299.4,281.4 303.4,284.7 303.9,284.2 303.3,283.5 308.8,287.2 
			311.2,285.9 311.9,288.2 310.7,288.9 305.1,285.8 304.7,286.4 313.7,292.8 314.4,294 322.8,300.4 326.1,304.2 328.2,308.3 
			333.3,314.8 335.4,316.5 337.7,321.4 342.9,326.4 347.6,332.6 350,334 353.5,338 355.4,341.5 355.1,341.7 356.8,348.9 
			356.7,354.6 357.5,357.3 362.9,367.2 368.3,370.1 367.1,374 367.8,377.8 367.4,381.5 365.6,382.4 361.7,386.9 361,390.7 
			364.3,390.4 366,392.3 367.1,395 365.2,396.5 359,397.2 355.3,399.7 359.1,405.6 359.8,410.2 366.9,420.5 371.1,423.3 
			372.9,428.7 378.5,432.7 380.4,432.7 384.2,435 384.3,434.8 391.1,436.5 390.4,438.1 399.8,442.3 405.6,447.1 406.6,449.7 
			410.1,452.7 412.1,457.2 415.9,459.1 422.4,461.1 424.6,461.3 432,464.3 435.7,464.9 446.5,468.1 446.5,468.6 447,468.3 
			447.4,468.4 447.4,468.1 450.3,466.4 456,468.9 459.5,472.9 460.3,475 464.2,476.4 465.3,478.8 472.6,481.8 475.8,484.7 
			475.7,485.8 504,495 510.7,499.9 514.4,501.2 520.5,501.5 534.3,505 536.2,504.2 542,510.3 541.5,510.5 552.6,513.4 563.3,519.4 
			576.8,520.3 579.5,521 583.3,523.5 588,525.4 592.4,525.9 595.9,527.2 599.3,526.1 604.5,526.2 611.7,521.9 625.5,517.1 
			627.6,514.1 630.6,511.9 643.8,508.7 635.6,507.9 640,504.1 642.6,507.7 645.4,505.7 646.9,507.3 643.5,510.2 651.3,510.1 
			660.4,513.3 660.5,513.1 666.7,515.5 665.7,514.8 672.6,518.6 684.4,527.4 691.4,533.7 695.3,535.8 699.2,540.7 712.5,553.1 
			714.8,547.9 713.9,544.8 714.6,539.9 716.7,537.4 712.9,532.9 712.8,531.6 723.6,509.7 724.2,509.2 757.4,507 759.1,504 
			758.3,499.9 760.1,497.9 755,494.4 752.8,494.8 752.7,492.1 749.5,487.8 740.2,483.4 733.9,476.3 731.3,475.3 741.9,474.5 
			740.8,459 741.3,458.7 789.2,455 789.6,454.9 789.7,451.2 791.8,449.7 796.7,452.6 800.3,447.2 801,443.6 803,441.9 805.8,434.5 
			811.3,433.8 814.5,425.6 816.4,422.9 817.6,427.2 816,433.1 820.2,434.3 822.3,437.3 823.7,443.2 824.2,436.8 825.2,434.9 
			825.8,426.8 827.2,424.4 828.1,416.9 830.7,407.3 827.7,407.9 826,410.6 825.3,410.4 825.7,407 831.3,403 830.8,400.6 827,400.5 
			824.8,402.2 824.9,401 822.6,399.7 822.6,398.4 824.4,398.1 829,392 828.9,382.9 833.5,373.9 837.5,369.7 841.9,362.5 		"/>
	</g>
</svg>
